<?xml version="1.0" ?><svg height="48" viewBox="0 0 48 48" width="48" xmlns="http://www.w3.org/2000/svg"><defs><style>.cls-1{fill:#fc934e;}.cls-2{fill:#f97f3e;}</style></defs><title/><g data-name="15-Soundcloud" id="_15-Soundcloud"><g data-name="&lt;Group&gt;" id="_Group_"><path class="cls-1" d="M38.9,27.06A7,7,0,0,1,38,41H22V8A12.994,12.994,0,0,1,34.97,20.34,6,6,0,0,1,39,26,6.144,6.144,0,0,1,38.9,27.06Z"/><path class="cls-2" d="M17,40a1,1,0,0,1-1-1V12a1,1,0,0,1,2,0V39A1,1,0,0,1,17,40Z"/><path class="cls-2" d="M12,42a1,1,0,0,1-1-1V7a1,1,0,0,1,2,0V41A1,1,0,0,1,12,42Z"/><path class="cls-2" d="M8,39a1,1,0,0,1-1-1V16a1,1,0,0,1,2,0V38A1,1,0,0,1,8,39Z"/><path class="cls-2" d="M4,42a1,1,0,0,1-1-1V13a1,1,0,0,1,2,0V41A1,1,0,0,1,4,42Z"/></g></g></svg>